# xmcd
#
# Track frame offsets:
#	150
#	14980
#	29590
#	46452
#	59962
#	74640
#	88810
#	102450
#	116877
#	131537
#
# Disc length: 1978 seconds
#
# Revision: 1
# Processed by: cddbd v1.4PL0 Copyright (c) Steve Scherf et al.
# Submitted via: audiograbber 1.81.01
#
DISCID=a607b80a
DTITLE=T. Graham Brown - The Best Of T. Graham Brown
DYEAR=1900
DGENRE=
TTITLE0=You Can't Take It With You
TTITLE1=Never Say Never
TTITLE2=Moonshadow Road
TTITLE3=I Tell It Like It Used To Be
TTITLE4=She Couldn't Love Me Anymore
TTITLE5=If You Could Only See Me Now
TTITLE6=With This Ring
TTITLE7=Hell And High Water
TTITLE8=I've Been Loving You Too Long
TTITLE9=I'm Sending One Up For You
EXTD=
EXTT0=
EXTT1=
EXTT2=
EXTT3=
EXTT4=
EXTT5=
EXTT6=
EXTT7=
EXTT8=
EXTT9=
PLAYORDER=
